<svg aria-roledescription="er" role="graphics-document document" viewBox="0 0 911.2374877929688 406.20001220703125" style="max-width: 911.2374877929688px;" xmlns="http://www.w3.org/2000/svg" width="100%" id="graph1"><style>#graph1{font-family:"trebuchet ms",verdana,arial,sans-serif;font-size:16px;fill:#333;}#graph1 .error-icon{fill:#552222;}#graph1 .error-text{fill:#552222;stroke:#552222;}#graph1 .edge-thickness-normal{stroke-width:2px;}#graph1 .edge-thickness-thick{stroke-width:3.5px;}#graph1 .edge-pattern-solid{stroke-dasharray:0;}#graph1 .edge-pattern-dashed{stroke-dasharray:3;}#graph1 .edge-pattern-dotted{stroke-dasharray:2;}#graph1 .marker{fill:#333333;stroke:#333333;}#graph1 .marker.cross{stroke:#333333;}#graph1 svg{font-family:"trebuchet ms",verdana,arial,sans-serif;font-size:16px;}#graph1 .entityBox{fill:#ECECFF;stroke:#9370DB;}#graph1 .attributeBoxOdd{fill:#ffffff;stroke:#9370DB;}#graph1 .attributeBoxEven{fill:#f2f2f2;stroke:#9370DB;}#graph1 .relationshipLabelBox{fill:hsl(80, 100%, 96.2745098039%);opacity:0.7;background-color:hsl(80, 100%, 96.2745098039%);}#graph1 .relationshipLabelBox rect{opacity:0.5;}#graph1 .relationshipLine{stroke:#333333;}#graph1 .entityTitleText{text-anchor:middle;font-size:18px;fill:#333;}#graph1 :root{--mermaid-font-family:"trebuchet ms",verdana,arial,sans-serif;}</style><g></g><defs><marker orient="auto" markerHeight="18" markerWidth="18" refY="9" refX="0" id="ONLY_ONE_START"><path d="M9,0 L9,18 M15,0 L15,18" fill="none" stroke="gray"></path></marker></defs><defs><marker orient="auto" markerHeight="18" markerWidth="18" refY="9" refX="18" id="ONLY_ONE_END"><path d="M3,0 L3,18 M9,0 L9,18" fill="none" stroke="gray"></path></marker></defs><defs><marker orient="auto" markerHeight="18" markerWidth="30" refY="9" refX="0" id="ZERO_OR_ONE_START"><circle r="6" cy="9" cx="21" fill="white" stroke="gray"></circle><path d="M9,0 L9,18" fill="none" stroke="gray"></path></marker></defs><defs><marker orient="auto" markerHeight="18" markerWidth="30" refY="9" refX="30" id="ZERO_OR_ONE_END"><circle r="6" cy="9" cx="9" fill="white" stroke="gray"></circle><path d="M21,0 L21,18" fill="none" stroke="gray"></path></marker></defs><defs><marker orient="auto" markerHeight="36" markerWidth="45" refY="18" refX="18" id="ONE_OR_MORE_START"><path d="M0,18 Q 18,0 36,18 Q 18,36 0,18 M42,9 L42,27" fill="none" stroke="gray"></path></marker></defs><defs><marker orient="auto" markerHeight="36" markerWidth="45" refY="18" refX="27" id="ONE_OR_MORE_END"><path d="M3,9 L3,27 M9,18 Q27,0 45,18 Q27,36 9,18" fill="none" stroke="gray"></path></marker></defs><defs><marker orient="auto" markerHeight="36" markerWidth="57" refY="18" refX="18" id="ZERO_OR_MORE_START"><circle r="6" cy="18" cx="48" fill="white" stroke="gray"></circle><path d="M0,18 Q18,0 36,18 Q18,36 0,18" fill="none" stroke="gray"></path></marker></defs><defs><marker orient="auto" markerHeight="36" markerWidth="57" refY="18" refX="39" id="ZERO_OR_MORE_END"><circle r="6" cy="18" cx="9" fill="white" stroke="gray"></circle><path d="M21,18 Q39,0 57,18 Q39,36 21,18" fill="none" stroke="gray"></path></marker></defs><path style="stroke: gray; fill: none;" marker-start="url(#ONLY_ONE_START)" marker-end="url(#ONE_OR_MORE_END)" d="M104.069,65.6L104.069,73.933C104.069,82.267,104.069,98.933,104.069,118.05C104.069,137.167,104.069,158.733,104.069,169.517L104.069,180.3" class="er relationshipLine"></path><path style="stroke: gray; fill: none;" marker-start="url(#ONLY_ONE_START)" marker-end="url(#ONE_OR_MORE_END)" d="M342.344,65.6L342.344,73.933C342.344,82.267,342.344,98.933,342.344,118.05C342.344,137.167,342.344,158.733,342.344,169.517L342.344,180.3" class="er relationshipLine"></path><path style="stroke: gray; fill: none;" marker-start="url(#ONLY_ONE_START)" marker-end="url(#ONE_OR_MORE_END)" d="M591.902,65.6L591.902,73.933C591.902,82.267,591.902,98.933,591.902,118.05C591.902,137.167,591.902,158.733,591.902,169.517L591.902,180.3" class="er relationshipLine"></path><path style="stroke: gray; fill: none;" marker-start="url(#ONLY_ONE_START)" marker-end="url(#ONE_OR_MORE_END)" d="M104.069,225.9L104.069,236.683C104.069,247.467,104.069,269.033,104.069,288.15C104.069,307.267,104.069,323.933,104.069,332.267L104.069,340.6" class="er relationshipLine"></path><path style="stroke: gray; fill: none;" marker-start="url(#ONLY_ONE_START)" marker-end="url(#ONE_OR_MORE_END)" d="M342.344,225.9L342.344,236.683C342.344,247.467,342.344,269.033,342.344,288.15C342.344,307.267,342.344,323.933,342.344,332.267L342.344,340.6" class="er relationshipLine"></path><path style="stroke: gray; fill: none;" marker-start="url(#ONLY_ONE_START)" marker-end="url(#ONE_OR_MORE_END)" d="M591.902,225.9L591.902,236.683C591.902,247.467,591.902,269.033,591.902,288.15C591.902,307.267,591.902,323.933,591.902,332.267L591.902,340.6" class="er relationshipLine"></path><path style="stroke: gray; fill: none;" marker-start="url(#ONLY_ONE_START)" marker-end="url(#ONE_OR_MORE_END)" d="M834.017,65.6L834.017,73.933C834.017,82.267,834.017,98.933,834.017,115.6C834.017,132.267,834.017,148.933,834.017,157.267L834.017,165.6" class="er relationshipLine"></path><g transform="translate(47.037498474121094,20 )" id="entity-USERINTERFACE-99997c2c-b6ae-5af4-9256-77f8aab34ca4"><rect height="45.60000038146973" width="114.0625" y="0" x="0" class="er entityBox"></rect><text transform="translate(57.03125,11.800000190734863)" style="dominant-baseline: middle; text-anchor: middle; font-size: 12px;" y="0" x="0" id="text-entity-USERINTERFACE-99997c2c-b6ae-5af4-9256-77f8aab34ca4" class="er entityLabel">USERINTERFACE</text><rect height="22" width="49.224364280700684" y="23.600000381469727" x="0" class="er attributeBoxOdd"></rect><text transform="translate(5,34.60000038146973)" style="dominant-baseline: middle; font-size: 10.2px;" y="0" x="0" id="text-entity-USERINTERFACE-99997c2c-b6ae-5af4-9256-77f8aab34ca4-attr-1-type" class="er entityLabel">string</text><rect height="22" width="64.83813571929932" y="23.600000381469727" x="49.224364280700684" class="er attributeBoxOdd"></rect><text transform="translate(54.224364280700684,34.60000038146973)" style="dominant-baseline: middle; font-size: 10.2px;" y="0" x="0" id="text-entity-USERINTERFACE-99997c2c-b6ae-5af4-9256-77f8aab34ca4-attr-1-name" class="er entityLabel">interface</text></g><g transform="translate(284.9007797241211,20 )" id="entity-LOADBALANCER-f731eb09-5537-5473-ae80-3f7e29d5fdfc"><rect height="45.60000038146973" width="114.88671875" y="0" x="0" class="er entityBox"></rect><text transform="translate(57.443359375,11.800000190734863)" style="dominant-baseline: middle; text-anchor: middle; font-size: 12px;" y="0" x="0" id="text-entity-LOADBALANCER-f731eb09-5537-5473-ae80-3f7e29d5fdfc" class="er entityLabel">LOADBALANCER</text><rect height="22" width="50.355223655700684" y="23.600000381469727" x="0" class="er attributeBoxOdd"></rect><text transform="translate(5,34.60000038146973)" style="dominant-baseline: middle; font-size: 10.2px;" y="0" x="0" id="text-entity-LOADBALANCER-f731eb09-5537-5473-ae80-3f7e29d5fdfc-attr-1-type" class="er entityLabel">string</text><rect height="22" width="64.53149509429932" y="23.600000381469727" x="50.355223655700684" class="er attributeBoxOdd"></rect><text transform="translate(55.355223655700684,34.60000038146973)" style="dominant-baseline: middle; font-size: 10.2px;" y="0" x="0" id="text-entity-LOADBALANCER-f731eb09-5537-5473-ae80-3f7e29d5fdfc-attr-1-name" class="er entityLabel">balancer</text></g><g transform="translate(499.7874984741211,20 )" id="entity-CONTENTDELIVERYNETWORK-9d2904b2-c37c-5623-adce-17a6777bc74e"><rect height="45.60000038146973" width="184.2292938232422" y="0" x="0" class="er entityBox"></rect><text transform="translate(92.1146469116211,11.800000190734863)" style="dominant-baseline: middle; text-anchor: middle; font-size: 12px;" y="0" x="0" id="text-entity-CONTENTDELIVERYNETWORK-9d2904b2-c37c-5623-adce-17a6777bc74e" class="er entityLabel">CONTENTDELIVERYNETWORK</text><rect height="22" width="86.5813455581665" y="23.600000381469727" x="0" class="er attributeBoxOdd"></rect><text transform="translate(5,34.60000038146973)" style="dominant-baseline: middle; font-size: 10.2px;" y="0" x="0" id="text-entity-CONTENTDELIVERYNETWORK-9d2904b2-c37c-5623-adce-17a6777bc74e-attr-1-type" class="er entityLabel">string</text><rect height="22" width="97.64794826507568" y="23.600000381469727" x="86.5813455581665" class="er attributeBoxOdd"></rect><text transform="translate(91.5813455581665,34.60000038146973)" style="dominant-baseline: middle; font-size: 10.2px;" y="0" x="0" id="text-entity-CONTENTDELIVERYNETWORK-9d2904b2-c37c-5623-adce-17a6777bc74e-attr-1-name" class="er entityLabel">delivery</text></g><g transform="translate(20,180.29999923706055 )" id="entity-WEBAPPLICATIONSERVERS-5e9b1944-c7cc-5d04-ac57-3aa57371bd42"><rect height="45.60000038146973" width="168.1374969482422" y="0" x="0" class="er entityBox"></rect><text transform="translate(84.0687484741211,11.800000190734863)" style="dominant-baseline: middle; text-anchor: middle; font-size: 12px;" y="0" x="0" id="text-entity-WEBAPPLICATIONSERVERS-5e9b1944-c7cc-5d04-ac57-3aa57371bd42" class="er entityLabel">WEBAPPLICATIONSERVERS</text><rect height="22" width="80.68857288360596" y="23.600000381469727" x="0" class="er attributeBoxOdd"></rect><text transform="translate(5,34.60000038146973)" style="dominant-baseline: middle; font-size: 10.2px;" y="0" x="0" id="text-entity-WEBAPPLICATIONSERVERS-5e9b1944-c7cc-5d04-ac57-3aa57371bd42-attr-1-type" class="er entityLabel">string</text><rect height="22" width="87.44892406463623" y="23.600000381469727" x="80.68857288360596" class="er attributeBoxOdd"></rect><text transform="translate(85.68857288360596,34.60000038146973)" style="dominant-baseline: middle; font-size: 10.2px;" y="0" x="0" id="text-entity-WEBAPPLICATIONSERVERS-5e9b1944-c7cc-5d04-ac57-3aa57371bd42-attr-1-name" class="er entityLabel">servers</text></g><g transform="translate(292.3441390991211,180.29999923706055 )" id="entity-APIGATEWAY-2d8e0daf-de44-575e-9c2a-4b38f88b8bc5"><rect height="45.60000038146973" width="100" y="0" x="0" class="er entityBox"></rect><text transform="translate(50,11.800000190734863)" style="dominant-baseline: middle; text-anchor: middle; font-size: 12px;" y="0" x="0" id="text-entity-APIGATEWAY-2d8e0daf-de44-575e-9c2a-4b38f88b8bc5" class="er entityLabel">APIGATEWAY</text><rect height="22" width="43.79184627532959" y="23.600000381469727" x="0" class="er attributeBoxOdd"></rect><text transform="translate(5,34.60000038146973)" style="dominant-baseline: middle; font-size: 10.2px;" y="0" x="0" id="text-entity-APIGATEWAY-2d8e0daf-de44-575e-9c2a-4b38f88b8bc5-attr-1-type" class="er entityLabel">string</text><rect height="22" width="56.20815372467041" y="23.600000381469727" x="43.79184627532959" class="er attributeBoxOdd"></rect><text transform="translate(48.79184627532959,34.60000038146973)" style="dominant-baseline: middle; font-size: 10.2px;" y="0" x="0" id="text-entity-APIGATEWAY-2d8e0daf-de44-575e-9c2a-4b38f88b8bc5-attr-1-name" class="er entityLabel">gateway</text></g><g transform="translate(531.2021446228027,180.29999923706055 )" id="entity-STORAGESERVICE-dc48f163-dfc5-5686-babe-d6b45fc0d758"><rect height="45.60000038146973" width="121.4000015258789" y="0" x="0" class="er entityBox"></rect><text transform="translate(60.70000076293945,11.800000190734863)" style="dominant-baseline: middle; text-anchor: middle; font-size: 12px;" y="0" x="0" id="text-entity-STORAGESERVICE-dc48f163-dfc5-5686-babe-d6b45fc0d758" class="er entityLabel">STORAGESERVICE</text><rect height="22" width="56.96464824676514" y="23.600000381469727" x="0" class="er attributeBoxOdd"></rect><text transform="translate(5,34.60000038146973)" style="dominant-baseline: middle; font-size: 10.2px;" y="0" x="0" id="text-entity-STORAGESERVICE-dc48f163-dfc5-5686-babe-d6b45fc0d758-attr-1-type" class="er entityLabel">string</text><rect height="22" width="64.43535327911377" y="23.600000381469727" x="56.96464824676514" class="er attributeBoxOdd"></rect><text transform="translate(61.96464824676514,34.60000038146973)" style="dominant-baseline: middle; font-size: 10.2px;" y="0" x="0" id="text-entity-STORAGESERVICE-dc48f163-dfc5-5686-babe-d6b45fc0d758-attr-1-name" class="er entityLabel">storage</text></g><g transform="translate(51.037109375,340.5999984741211 )" id="entity-IAM-575f95bc-181e-5cf6-b52b-967fef760a7c"><rect height="45.60000038146973" width="106.06328392028809" y="0" x="0" class="er entityBox"></rect><text transform="translate(53.03164196014404,11.800000190734863)" style="dominant-baseline: middle; text-anchor: middle; font-size: 12px;" y="0" x="0" id="text-entity-IAM-575f95bc-181e-5cf6-b52b-967fef760a7c" class="er entityLabel">IAM</text><rect height="22" width="36.21914100646973" y="23.600000381469727" x="0" class="er attributeBoxOdd"></rect><text transform="translate(5,34.60000038146973)" style="dominant-baseline: middle; font-size: 10.2px;" y="0" x="0" id="text-entity-IAM-575f95bc-181e-5cf6-b52b-967fef760a7c-attr-1-type" class="er entityLabel">string</text><rect height="22" width="69.84414291381836" y="23.600000381469727" x="36.21914100646973" class="er attributeBoxOdd"></rect><text transform="translate(41.21914100646973,34.60000038146973)" style="dominant-baseline: middle; font-size: 10.2px;" y="0" x="0" id="text-entity-IAM-575f95bc-181e-5cf6-b52b-967fef760a7c-attr-1-name" class="er entityLabel">management</text></g><g transform="translate(257.1003875732422,340.5999984741211 )" id="entity-MONITORINGANDLOGGING-b56c8136-716a-5a85-91eb-ae60581dde7c"><rect height="45.60000038146973" width="170.4875030517578" y="0" x="0" class="er entityBox"></rect><text transform="translate(85.2437515258789,11.800000190734863)" style="dominant-baseline: middle; text-anchor: middle; font-size: 12px;" y="0" x="0" id="text-entity-MONITORINGANDLOGGING-b56c8136-716a-5a85-91eb-ae60581dde7c" class="er entityLabel">MONITORINGANDLOGGING</text><rect height="22" width="73.36035251617432" y="23.600000381469727" x="0" class="er attributeBoxOdd"></rect><text transform="translate(5,34.60000038146973)" style="dominant-baseline: middle; font-size: 10.2px;" y="0" x="0" id="text-entity-MONITORINGANDLOGGING-b56c8136-716a-5a85-91eb-ae60581dde7c-attr-1-type" class="er entityLabel">string</text><rect height="22" width="97.1271505355835" y="23.600000381469727" x="73.36035251617432" class="er attributeBoxOdd"></rect><text transform="translate(78.36035251617432,34.60000038146973)" style="dominant-baseline: middle; font-size: 10.2px;" y="0" x="0" id="text-entity-MONITORINGANDLOGGING-b56c8136-716a-5a85-91eb-ae60581dde7c-attr-1-name" class="er entityLabel">monitoring</text></g><g transform="translate(536.1287078857422,340.5999984741211 )" id="entity-CACHINGLAYER-006adec1-c729-5d8d-b53f-8efaa37a1e10"><rect height="45.60000038146973" width="111.546875" y="0" x="0" class="er entityBox"></rect><text transform="translate(55.7734375,11.800000190734863)" style="dominant-baseline: middle; text-anchor: middle; font-size: 12px;" y="0" x="0" id="text-entity-CACHINGLAYER-006adec1-c729-5d8d-b53f-8efaa37a1e10" class="er entityLabel">CACHINGLAYER</text><rect height="22" width="51.32587909698486" y="23.600000381469727" x="0" class="er attributeBoxOdd"></rect><text transform="translate(5,34.60000038146973)" style="dominant-baseline: middle; font-size: 10.2px;" y="0" x="0" id="text-entity-CACHINGLAYER-006adec1-c729-5d8d-b53f-8efaa37a1e10-attr-1-type" class="er entityLabel">string</text><rect height="22" width="60.22099590301514" y="23.600000381469727" x="51.32587909698486" class="er attributeBoxOdd"></rect><text transform="translate(56.32587909698486,34.60000038146973)" style="dominant-baseline: middle; font-size: 10.2px;" y="0" x="0" id="text-entity-CACHINGLAYER-006adec1-c729-5d8d-b53f-8efaa37a1e10-attr-1-name" class="er entityLabel">caching</text></g><g transform="translate(784.0167922973633,20 )" id="entity-DATABASE-9b601499-6dab-558f-8378-e642832c60b2"><rect height="45.60000038146973" width="100" y="0" x="0" class="er entityBox"></rect><text transform="translate(50,11.800000190734863)" style="dominant-baseline: middle; text-anchor: middle; font-size: 12px;" y="0" x="0" id="text-entity-DATABASE-9b601499-6dab-558f-8378-e642832c60b2" class="er entityLabel">DATABASE</text><rect height="22" width="42.50190448760986" y="23.600000381469727" x="0" class="er attributeBoxOdd"></rect><text transform="translate(5,34.60000038146973)" style="dominant-baseline: middle; font-size: 10.2px;" y="0" x="0" id="text-entity-DATABASE-9b601499-6dab-558f-8378-e642832c60b2-attr-1-type" class="er entityLabel">string</text><rect height="22" width="57.49809551239014" y="23.600000381469727" x="42.50190448760986" class="er attributeBoxOdd"></rect><text transform="translate(47.50190448760986,34.60000038146973)" style="dominant-baseline: middle; font-size: 10.2px;" y="0" x="0" id="text-entity-DATABASE-9b601499-6dab-558f-8378-e642832c60b2-attr-1-name" class="er entityLabel">database</text></g><g transform="translate(776.7960891723633,165.5999984741211 )" id="entity-SECURITYLAYER-1e6ce970-37a5-560a-bc8a-018d86f30038"><rect height="75" width="114.44140625" y="0" x="0" class="er entityBox"></rect><text transform="translate(57.220703125,37.5)" style="dominant-baseline: middle; text-anchor: middle; font-size: 12px;" y="0" x="0" id="text-entity-SECURITYLAYER-1e6ce970-37a5-560a-bc8a-018d86f30038" class="er entityLabel">SECURITYLAYER</text></g><rect height="13.600000381469727" width="24.05000114440918" y="116.14999675750732" x="92.04399967193604" class="er relationshipLabelBox"></rect><text style="text-anchor: middle; dominant-baseline: middle; font-size: 12px;" y="122.94999694824219" x="104.06900024414062" id="rel15" class="er relationshipLabel">Uses</text><rect height="13.600000381469727" width="88.05000305175781" y="116.14999675750732" x="298.3189926147461" class="er relationshipLabelBox"></rect><text style="text-anchor: middle; dominant-baseline: middle; font-size: 12px;" y="122.94999694824219" x="342.343994140625" id="rel16" class="er relationshipLabel">Routes traffic to</text><rect height="13.600000381469727" width="102.80000305175781" y="116.14999675750732" x="540.5019760131836" class="er relationshipLabelBox"></rect><text style="text-anchor: middle; dominant-baseline: middle; font-size: 12px;" y="122.94999694824219" x="591.9019775390625" id="rel17" class="er relationshipLabel">Delivers content to</text><rect height="13.600000381469727" width="24.05000114440918" y="276.44999980926514" x="92.04399967193604" class="er relationshipLabelBox"></rect><text style="text-anchor: middle; dominant-baseline: middle; font-size: 12px;" y="283.25" x="104.06900024414062" id="rel18" class="er relationshipLabel">Uses</text><rect height="13.600000381469727" width="69.7125015258789" y="276.44999980926514" x="307.48774337768555" class="er relationshipLabelBox"></rect><text style="text-anchor: middle; dominant-baseline: middle; font-size: 12px;" y="283.25" x="342.343994140625" id="rel19" class="er relationshipLabel">Sends logs to</text><rect height="13.600000381469727" width="109.8792953491211" y="276.44999980926514" x="536.962329864502" class="er relationshipLabelBox"></rect><text style="text-anchor: middle; dominant-baseline: middle; font-size: 12px;" y="283.25" x="591.9019775390625" id="rel20" class="er relationshipLabel">Provides content for</text><rect height="13.600000381469727" width="40.88750076293945" y="108.80000591278076" x="813.573278427124" class="er relationshipLabelBox"></rect><text style="text-anchor: middle; dominant-baseline: middle; font-size: 12px;" y="115.60000610351562" x="834.0170288085938" id="rel21" class="er relationshipLabel">Secures</text></svg>